<svg xmlns="http://www.w3.org/2000/svg" viewBox="0 0 700 500"><g id="freepik--background-simple--inject-62"><path d="M659,188c10-32-5-82-37-90s-46-1-76-13-55-42-97-38c-19.62,1.87-35.11,9.78-51.14,20.57-22.49,15.15-40.92,8.91-59.8-7.9C325.59,48.56,314,40.24,297,37c-42-8-78,0-98,25-15.31,19.13-23.53,58.65-49.61,65.73C121.76,135.22,93.21,129.3,66,142c-45,21-32,92-17,128s-28,66-26,98,14,50,55,57c23.79,4.06,43.49-9.1,64.61-18,32.06-13.56,63.68-12.24,95.6.44,33,13.12,64,31.67,100.79,29.6,43.07-2.43,77-23.82,114.13-43.38,29.54-15.54,50.29-7.72,78.2,6C556,411.78,582.93,423.45,610,411c26.63-12.25,43.35-38.39,49.25-66.45,5.34-25.35-2.73-49.95-6.87-74.78C647.74,242,650.62,214.83,659,188Z" style="fill:#F9F9F9"></path><path d="M659,188c10-32-5-82-37-90s-46-1-76-13-55-42-97-38c-19.62,1.87-35.11,9.78-51.14,20.57-22.49,15.15-40.92,8.91-59.8-7.9C325.59,48.56,314,40.24,297,37c-42-8-78,0-98,25-15.31,19.13-23.53,58.65-49.61,65.73C121.76,135.22,93.21,129.3,66,142c-45,21-32,92-17,128s-28,66-26,98,14,50,55,57c23.79,4.06,43.49-9.1,64.61-18,32.06-13.56,63.68-12.24,95.6.44,33,13.12,64,31.67,100.79,29.6,43.07-2.43,77-23.82,114.13-43.38,29.54-15.54,50.29-7.72,78.2,6C556,411.78,582.93,423.45,610,411c26.63-12.25,43.35-38.39,49.25-66.45,5.34-25.35-2.73-49.95-6.87-74.78C647.74,242,650.62,214.83,659,188Z" style="fill:#fff;opacity:0.8"></path></g><g id="freepik--Plants--inject-62"><path d="M71.06,292.85s-2.34,6.43-7.3,7.3S50,291.39,55.58,286.43,68.72,289.35,71.06,292.85Z" style="fill:#F9F9F9;stroke:#263238;stroke-linecap:round;stroke-linejoin:round"></path><path d="M78.65,261.31s-7.3,17.82-4.38,26.58,21,15.18,26.28,3.79-6.42-27.45-10.8-30.95S80.11,258.39,78.65,261.31Z" style="fill:#F9F9F9;stroke:#263238;stroke-linecap:round;stroke-linejoin:round"></path><path d="M121.29,268.9s-12.56,11.39-14,22.78,7,15.48,15.77,14,13.14-23.65,10.52-33.88S121.29,268.9,121.29,268.9Z" style="fill:#F9F9F9;stroke:#263238;stroke-linecap:round;stroke-linejoin:round"></path><path d="M123.63,332s-14,.58-14.61,7.3,6.14,8.17,12.85,2.33S129.47,332.28,123.63,332Z" style="fill:#F9F9F9;stroke:#263238;stroke-linecap:round;stroke-linejoin:round"></path><path d="M88.87,346s-1.46,7-6.71,9.64-14.61-2.92-9.64-11.39S86.24,342.5,88.87,346Z" style="fill:#F9F9F9;stroke:#263238;stroke-linecap:round;stroke-linejoin:round"></path><path d="M76.61,324.1s-2.63-5.84-12.85-2-14.31,9.63-7.89,11.68S76.61,324.1,76.61,324.1Z" style="fill:#F9F9F9;stroke:#263238;stroke-linecap:round;stroke-linejoin:round"></path><path d="M105.81,254s1.75,4.09,5.26,3.21,4.38-6.13,9.93-4.67,10.22,7.88,10.22,5-7-10.51-14.9-10.51S106.1,250.21,105.81,254Z" style="fill:#F9F9F9;stroke:#263238;stroke-linecap:round;stroke-linejoin:round"></path><path d="M91.36,298.12s6.11,17.89,7.42,33.17,0,39.71,0,39.71" style="fill:none;stroke:#263238;stroke-linecap:round;stroke-linejoin:round"></path><path d="M112.75,304.23s-7,20.51-8.73,33.6S101.84,371,101.84,371" style="fill:none;stroke:#263238;stroke-linecap:round;stroke-linejoin:round"></path><path d="M109.26,340.89s-3.06.87-4.8,30.54" style="fill:none;stroke:#263238;stroke-linecap:round;stroke-linejoin:round"></path><path d="M88.87,346s2.93-2.49,4.68,3.18.87,21.38.87,21.38" style="fill:none;stroke:#263238;stroke-linecap:round;stroke-linejoin:round"></path><path d="M96.42,343.19c2.29,12.8.18,26.94.18,26.94" style="fill:none;stroke:#263238;stroke-linecap:round;stroke-linejoin:round"></path><path d="M76.61,324.1s12.57-2.41,17.81,11.55a38.53,38.53,0,0,1,1.31,4.27" style="fill:none;stroke:#263238;stroke-linecap:round;stroke-linejoin:round"></path><path d="M129.09,310.57s2.63-5.84,12.85-2,14.31,9.64,7.88,11.68S129.09,310.57,129.09,310.57Z" style="fill:#F9F9F9;stroke:#263238;stroke-linecap:round;stroke-linejoin:round"></path><path d="M117.91,313.13a18.15,18.15,0,0,0-6.63,9c-5.24,14-4.64,48.44-4.64,48.44" style="fill:none;stroke:#263238;stroke-linecap:round;stroke-linejoin:round"></path><path d="M129.09,310.57a16.19,16.19,0,0,0-8.71,1.19" style="fill:none;stroke:#263238;stroke-linecap:round;stroke-linejoin:round"></path><path d="M84.83,301.76a41.28,41.28,0,0,1,7.41,13.38c7,20.07,9.6,45.82,8.29,55.42" style="fill:none;stroke:#263238;stroke-linecap:round;stroke-linejoin:round"></path><path d="M71.06,292.85s6.09.95,12.25,7.25" style="fill:none;stroke:#263238;stroke-linecap:round;stroke-linejoin:round"></path><path d="M102.56,320.55c-.42,25.33-.72,50.45-.72,50.45" style="fill:none;stroke:#263238;stroke-linecap:round;stroke-linejoin:round"></path><path d="M105.81,254s-1.35-1.27-2.23,21.42c-.34,8.82-.68,25.21-1,42" style="fill:none;stroke:#263238;stroke-linecap:round;stroke-linejoin:round"></path><path d="M114.41,415.51H88.82a5.33,5.33,0,0,1-5.3-4.81l-3.94-40.57h44.08l-3.94,40.57A5.33,5.33,0,0,1,114.41,415.51Z" style="fill:#fff;stroke:#263238;stroke-linecap:round;stroke-linejoin:round"></path><polygon points="80.89 383.65 81.36 388.45 121.88 388.45 122.34 383.65 80.89 383.65" style="fill:#263238;stroke:#263238;stroke-linecap:round;stroke-linejoin:round"></polygon><polygon points="120.86 398.93 121.11 396.31 82.12 396.31 82.38 398.93 120.86 398.93" style="fill:#263238;stroke:#263238;stroke-linecap:round;stroke-linejoin:round"></polygon><circle cx="117.55" cy="377.98" r="3.49" style="fill:#263238;stroke:#263238;stroke-linecap:round;stroke-linejoin:round"></circle><path d="M86.13,381.47A3.49,3.49,0,1,0,82.64,378,3.49,3.49,0,0,0,86.13,381.47Z" style="fill:#263238;stroke:#263238;stroke-linecap:round;stroke-linejoin:round"></path><circle cx="96.6" cy="377.98" r="3.49" style="fill:#263238;stroke:#263238;stroke-linecap:round;stroke-linejoin:round"></circle><circle cx="107.07" cy="377.98" r="3.49" style="fill:#263238;stroke:#263238;stroke-linecap:round;stroke-linejoin:round"></circle></g><g id="freepik--Floor--inject-62"><ellipse cx="355.5" cy="415" rx="308.5" ry="9" style="opacity:0.1"></ellipse></g><g id="freepik--Couch--inject-62"><path d="M551.05,369.92s-2.75,2.66-2.36,9.31a8.39,8.39,0,0,0,3.24,5.83s-2.27,0-1.62,4.86,3.16,8.11,3.56,11.34c.58,4.55,1,6.8-.64,9.71s-3.24,4.54-1.62,4.54,3.88-1,4.21-4.54-.8-8.31,1-12.14c3.65-8,2.28-12.8.66-14.1a12.74,12.74,0,0,0-.65-14.57Z" style="fill:#263238;stroke:#263238;stroke-linecap:round;stroke-linejoin:round"></path><path d="M652.25,369.92s2.75,2.66,2.36,9.31a8.39,8.39,0,0,1-3.24,5.83s2.26,0,1.62,4.86-3.16,8.11-3.57,11.34c-.57,4.55-1,6.8.65,9.71s3.24,4.54,1.62,4.54-3.89-1-4.21-4.54.79-8.31-1-12.14c-3.66-8-2.28-12.8-.66-14.1a12.74,12.74,0,0,1,.65-14.57Z" style="fill:#263238;stroke:#263238;stroke-linecap:round;stroke-linejoin:round"></path><rect x="546.03" y="341.79" width="111.95" height="29.46" rx="5.76" style="fill:#878787;stroke:#263238;stroke-linecap:round;stroke-linejoin:round"></rect></g><g id="freepik--Device--inject-62"><path d="M398.3,374.4V353.3H305.68v21.1a44,44,0,0,1-9.84,27.67l-4,5h120.4l-4.06-5A44,44,0,0,1,398.3,374.4Z" style="fill:none;stroke:#263238;stroke-linecap:round;stroke-linejoin:round"></path><rect x="291.79" y="407.08" width="120.43" height="5.5" style="fill:none;stroke:#263238;stroke-linecap:round;stroke-linejoin:round"></rect><rect x="165.87" y="80" width="372.23" height="273.32" rx="8.48" style="fill:none;stroke:#263238;stroke-linecap:round;stroke-linejoin:round"></rect><path d="M165.87,310.83H538.1a0,0,0,0,1,0,0v34a8.48,8.48,0,0,1-8.48,8.48H174.36a8.48,8.48,0,0,1-8.48-8.48v-34a0,0,0,0,1,0,0Z" style="fill:none;stroke:#263238;stroke-linecap:round;stroke-linejoin:round"></path><rect x="184.6" y="97" width="334.78" height="193.1" style="fill:none;stroke:#263238;stroke-linecap:round;stroke-linejoin:round"></rect></g><g id="freepik--Pictures--inject-62"><rect x="467.41" y="116.22" width="153.24" height="107.86" style="fill:#263238;stroke:#fff;stroke-linecap:round;stroke-linejoin:round;stroke-width:1.5px"></rect><circle cx="592.05" cy="135.62" r="10.19" style="fill:#F9F9F9;stroke:#fff;stroke-linecap:round;stroke-linejoin:round;stroke-width:1.5px"></circle><circle cx="523.32" cy="199.09" r="7.23" style="fill:#F9F9F9;stroke:#fff;stroke-linecap:round;stroke-linejoin:round;stroke-width:1.5px"></circle><path d="M491.75,165.21a6.91,6.91,0,1,1-6.91-6.9A6.91,6.91,0,0,1,491.75,165.21Z" style="fill:#F9F9F9;stroke:#fff;stroke-linecap:round;stroke-linejoin:round;stroke-width:1.5px"></path><path d="M520,124.44a3,3,0,1,1-3-3A3,3,0,0,1,520,124.44Z" style="fill:#F9F9F9;stroke:#fff;stroke-linecap:round;stroke-linejoin:round;stroke-width:1.5px"></path><path d="M620.66,132c-24.18,20.88-54.11,53-66.65,92.12h66.65Z" style="fill:#F9F9F9;stroke:#fff;stroke-linecap:round;stroke-linejoin:round;stroke-width:1.5px"></path><rect x="275.37" y="116.22" width="153.24" height="107.86" style="fill:#F9F9F9;stroke:#fff;stroke-linecap:round;stroke-linejoin:round;stroke-width:1.5px"></rect><path d="M428.61,183.62a70.7,70.7,0,0,1-11.84-4.92c-19.07-9.87-28.28-38.15-57.88-34.86s-27.62,24.33-46,50.64-37.48,29.6-37.48,29.6H428.61Z" style="fill:#263238;stroke:#fff;stroke-linecap:round;stroke-linejoin:round;stroke-width:1.5px"></path><path d="M275.37,116.22v37.45c8.28-1.38,19.5-5.13,27.62-15.09,5.66-7,10.82-14.9,16.18-22.36Z" style="fill:#263238;stroke:#fff;stroke-linecap:round;stroke-linejoin:round;stroke-width:1.5px"></path><circle cx="400" cy="135.62" r="10.19" style="fill:#263238;stroke:#fff;stroke-linecap:round;stroke-linejoin:round;stroke-width:1.5px"></circle><circle cx="331.27" cy="199.09" r="7.23" style="fill:#F9F9F9;stroke:#fff;stroke-linecap:round;stroke-linejoin:round;stroke-width:1.5px"></circle><path d="M312,164.4a6.91,6.91,0,1,1-6.91-6.91A6.9,6.9,0,0,1,312,164.4Z" style="fill:#263238;stroke:#fff;stroke-linecap:round;stroke-linejoin:round;stroke-width:1.5px"></path><path d="M328,124.44a3,3,0,1,1-3-3A3,3,0,0,1,328,124.44Z" style="fill:#263238;stroke:#fff;stroke-linecap:round;stroke-linejoin:round;stroke-width:1.5px"></path><rect x="83.32" y="116.22" width="153.24" height="107.86" style="fill:#263238;stroke:#fff;stroke-linecap:round;stroke-linejoin:round;stroke-width:1.5px"></rect><path d="M83.32,126.56C98,142.5,122.9,163.12,158,170.79c33.8,7.4,61.09-4.92,78.57-17.19V116.22H83.32Z" style="fill:#F9F9F9;stroke:#fff;stroke-linecap:round;stroke-linejoin:round;stroke-width:1.5px"></path><circle cx="207.95" cy="135.62" r="10.19" style="fill:#263238;stroke:#fff;stroke-linecap:round;stroke-linejoin:round;stroke-width:1.5px"></circle><circle cx="139.22" cy="199.09" r="7.23" style="fill:#F9F9F9;stroke:#fff;stroke-linecap:round;stroke-linejoin:round;stroke-width:1.5px"></circle><path d="M107.65,165.21a6.91,6.91,0,1,1-6.9-6.9A6.9,6.9,0,0,1,107.65,165.21Z" style="fill:#F9F9F9;stroke:#fff;stroke-linecap:round;stroke-linejoin:round;stroke-width:1.5px"></path><path d="M135.93,124.44a3,3,0,1,1-3-3A3,3,0,0,1,135.93,124.44Z" style="fill:#263238;stroke:#fff;stroke-linecap:round;stroke-linejoin:round;stroke-width:1.5px"></path><path d="M236.56,188.44C214.35,191.77,175,200.68,141,224.08h95.61Z" style="fill:#F9F9F9;stroke:#fff;stroke-linecap:round;stroke-linejoin:round;stroke-width:1.5px"></path></g><g id="freepik--character-2--inject-62"><ellipse cx="468.5" cy="463" rx="60.5" ry="13" style="opacity:0.1"></ellipse><path d="M445,164s-2.22,3.18-2.86,4.13-3.18.64-2.54,2.86a5.08,5.08,0,0,0,1.59,2.86s.63,7.63-.32,10.8-1.27,5.41,1,7.31,9.54,1.27,12.71.64,9.85-1.91,10.81-6.36-.64-14.93-6.68-18.42S447.89,162.14,445,164Z" style="fill:#fff;stroke:#263238;stroke-linecap:round;stroke-linejoin:round"></path><path d="M456.79,142.12s-16.53,9.21-16.84,12.39,8.58,20,10.48,21.92,3.5,6.36,1.27,7.95a11.71,11.71,0,0,1-3.49,1.9L446.94,185a8.67,8.67,0,0,0,1.9,5.09c1.91,2.22,3.5,3.17,7.31,3.49s11.12,1.91,16.52,0,8.9-2.86,13.67-8.9,7.62-12.07,6-16.83-2.22-10.81-8.58-18.43S466.32,136.72,456.79,142.12Z" style="fill:#fff;stroke:#263238;stroke-linecap:round;stroke-linejoin:round"></path><path d="M470.05,182.85a23.17,23.17,0,0,0,5,1.43" style="fill:none;stroke:#263238;stroke-linecap:round;stroke-linejoin:round"></path><path d="M452.24,156.69c.18,6.32,1.44,14.66,6.36,19a39.26,39.26,0,0,0,8.88,6" style="fill:none;stroke:#263238;stroke-linecap:round;stroke-linejoin:round"></path><path d="M452.57,148.44s-.16,1.22-.26,3.17" style="fill:none;stroke:#263238;stroke-linecap:round;stroke-linejoin:round"></path><path d="M478.25,169.38a24,24,0,0,1,2.55,13.31" style="fill:none;stroke:#263238;stroke-linecap:round;stroke-linejoin:round"></path><path d="M462.4,141.78s-2.53,13.32,8.88,20.3a19.15,19.15,0,0,1,5.17,4.55" style="fill:none;stroke:#263238;stroke-linecap:round;stroke-linejoin:round"></path><path d="M456.44,178.76c2.08,2.77,3.59,5.49,2.47,10" style="fill:none;stroke:#263238;stroke-linecap:round;stroke-linejoin:round"></path><path d="M450.67,158.27s-1.9,7.61,1.27,14a24.07,24.07,0,0,0,2.19,3.51" style="fill:none;stroke:#263238;stroke-linecap:round;stroke-linejoin:round"></path><path d="M417.71,316.24s0,8.89,1,11.12,4.77,5.08,7.31,5.08,6-1.91,6-1.91v-6.67c0-2.86-3.81-6.67-5.08-8.26S417.71,316.24,417.71,316.24Z" style="fill:#fff;stroke:#263238;stroke-linecap:round;stroke-linejoin:round"></path><path d="M424.7,318.14s.95,1.27.95,4.45-1.59,4.45-1.59,4.45l2.86,1.27s1.27-4.13,2.54-2.86" style="fill:none;stroke:#263238;stroke-linecap:round;stroke-linejoin:round"></path><path d="M489,449.34s.79,7.81,0,10.18-2.21,4.17-7.51,3.72-4.82-2.15-9.37-1.69-7.13,1.05-11.06,1.12-8-4.78-2.87-5.63a23.8,23.8,0,0,0,12.26-5.5C474.17,448.54,484.65,448.14,489,449.34Z" style="fill:#fff;stroke:#263238;stroke-linecap:round;stroke-linejoin:round"></path><path d="M481.57,463.24c4.4.37,6.15-.8,7.05-2.57-5.53,2.22-9.21-1.5-13.36-1.5a60.2,60.2,0,0,0-11.49,1.73l-7.92-2c-.06,1.69,2.64,3.86,5.29,3.81,3.93-.07,6.5-.66,11.06-1.12S476.26,462.79,481.57,463.24Z" style="fill:#fff;stroke:#263238;stroke-linecap:round;stroke-linejoin:round"></path><path d="M498.73,302.26s1.59,14.47-.32,20.19-8.58,25.21-14.56,40c-2.41,6-3.87,9.68-3.23,13.17s-.32,4.45.63,5.4,8.9,33.68,11.76,43.85,2.22,26.37,2.22,26.37-1,1.27-9.21,2.23a110.76,110.76,0,0,1-15.57.63s-5.08-23.83-4.77-32.09-5.08-34-5.08-41.94.32-41,.32-41-14.3-15.88-15.89-24.46-1.27-11.44-1.27-11.44S474.58,312.74,498.73,302.26Z" style="fill:#F9F9F9;stroke:#263238;stroke-linecap:round;stroke-linejoin:round"></path><path d="M443.63,452.33s-2.61.33-7.84.65-8.18,1-4.58,4.25,5.88,4.91,17.65,6.54,14.72.33,16.35-2,1-9.81,1-9.81S448.27,455,443.63,452.33Z" style="fill:#fff;stroke:#263238;stroke-linecap:round;stroke-linejoin:round"></path><path d="M439.93,460.32c-6.17-1.44-9.1-4.2-10.26-5.65-.16.6.28,1.42,1.54,2.56,3.6,3.27,5.88,4.91,17.65,6.54s14.72.33,16.35-2a3.2,3.2,0,0,0,.38-.74C459.58,462.81,447.91,462.18,439.93,460.32Z" style="fill:#fff;stroke:#263238;stroke-linecap:round;stroke-linejoin:round"></path><path d="M481.57,327l-9.53,5.4-4.13,21s-3.5,28.6-3.5,33S467,408.38,468.86,423a244.32,244.32,0,0,1,1.59,31.14,34.12,34.12,0,0,1-16.52,3.18c-9.22-.64-14.94-7.63-14.94-7.63s3.18-10.48,3.18-19.7,1.27-29.54,1.59-34.31a30.62,30.62,0,0,0-.95-10.17c-.64-2.86-7-21.29-8.26-37.81s-3.82-45.12-3.82-45.12,14.94,2.55,28.92,3.82,24.46.31,30.5-2.23" style="fill:#F9F9F9;stroke:#263238;stroke-linecap:round;stroke-linejoin:round"></path><path d="M445,445.49c-.4,2.24-.78,3.93-.78,3.93" style="fill:none;stroke:#263238;stroke-linecap:round;stroke-linejoin:round"></path><path d="M442.63,361.1a43.79,43.79,0,0,0,.92,4.36,298.73,298.73,0,0,1,6.36,30.44c.33,3-3.68,38.8-4,43.15-.06.82-.16,1.7-.28,2.59" style="fill:none;stroke:#263238;stroke-linecap:round;stroke-linejoin:round"></path><path d="M438.81,321.65c.64,9.64,1.73,24.21,3.07,34.4" style="fill:none;stroke:#263238;stroke-linecap:round;stroke-linejoin:round"></path><path d="M438.2,311.61s.13,2.47.38,6.37" style="fill:none;stroke:#263238;stroke-linecap:round;stroke-linejoin:round"></path><path d="M484.11,201.85l6-6.67a15.4,15.4,0,0,0-13.66-8.58c-10.17-.32-20.34,2.23-25.74,5.72s-13.34,9.53-15.89,10.8,10.81,5.09,10.81,5.09-7.63,7.94-12.4,12.07-6,29.23-5.71,40.35-3.18,42.26-3.18,42.26a128.87,128.87,0,0,0,24.78,6.36c14.3,2.22,15.89,5.72,29.23,3.17S510.8,301,510.8,301s-9.85-30.51-8.89-38.13,4.76-22.24,2.54-29.55S494.6,209.48,484.11,201.85Z" style="fill:#263238;stroke:#263238;stroke-linecap:round;stroke-linejoin:round"></path><path d="M458.06,257.77l-30.5,7.63-5.09,27.32s21.93,6.68,32.09,3.5c8.33-2.6,11.49-5.87,11.76-14.62.32-10.16-5.4-22.87-5.4-22.87Z" style="fill:#878787;stroke:#263238;stroke-linecap:round;stroke-linejoin:round"></path><path d="M456.28,293a10.48,10.48,0,0,1-2.56,2.15" style="fill:none;stroke:#263238;stroke-linecap:round;stroke-linejoin:round"></path><path d="M457.29,264.25s3.25,14.61,2.27,21.43a14.29,14.29,0,0,1-1.32,4.35" style="fill:none;stroke:#263238;stroke-linecap:round;stroke-linejoin:round"></path><path d="M439.63,213.93s13.66,16.84,17.47,49.24l3.5-.63s-2.54-36.54-18.43-51.16Z" style="fill:#878787;stroke:#263238;stroke-linecap:round;stroke-linejoin:round"></path><path d="M438,217.1s-7,1.91-11.76,10.81-14.61,36.85-15.56,42.89,4.44,44.17,5.08,45.75,11.12-.95,11.12-.95h1.27l.32-10.8-4.13-1.91L441.85,246" style="fill:#263238;stroke:#263238;stroke-linecap:round;stroke-linejoin:round"></path></g><g id="freepik--character-1--inject-62"><ellipse cx="270.5" cy="463" rx="60.5" ry="13" style="opacity:0.1"></ellipse><path d="M242.45,317.7s12.82,50.29,13.49,53.66,1,6.41-3,11.47-8.44,21.6-8.44,35.1,2.13,20.15-1.69,37.8c-.57,2.66-.33,5.4,4.73,6.07s18.22-1.68,19.57-1.68,4.39-.34,4.73-2.37S262.69,453,260,451a43.54,43.54,0,0,1-4.38-3.71s11.13-36.44,13.16-47.24,6.07-13.84,5.06-30.71-2.36-49.61-2.36-49.61S248.52,319.39,242.45,317.7Z" style="fill:#fff;stroke:#263238;stroke-linecap:round;stroke-linejoin:round"></path><path d="M260,451a43.54,43.54,0,0,1-4.38-3.71l1,4.73s-2,.67-8.1.67a21.23,21.23,0,0,1-5.13-.72c-.17,1.4-.37,2.67-.61,3.76-.58,2.66-.33,5.4,4.73,6.07s18.22-1.68,19.57-1.68,4.39-.34,4.73-2.37S262.69,453,260,451Z" style="fill:#263238;stroke:#263238;stroke-linecap:round;stroke-linejoin:round"></path><path d="M267.84,321.25s.25,46.57.76,51.63a59.28,59.28,0,0,1-.25,13.41,140.32,140.32,0,0,0-.51,24c.76,8.86,2.53,32.65,2.78,38.22s-.5,12.91-.5,14.17,6.58,1.77,12.4,1.77,11.14-2.78,12.91-5.82-.51-3.29-2.79-3.29-8.6-1-10.12-2.28a24.13,24.13,0,0,1-2.78-2.78s5.31-25.06,6.83-42.52,1.52-27.59,1.52-27.59,8.35-38.73,8.6-50.37.26-15.18.26-15.18S272.14,320.23,267.84,321.25Z" style="fill:#fff;stroke:#263238;stroke-linecap:round;stroke-linejoin:round"></path><path d="M246.2,332.25l1.6.66L268,341.26a135.09,135.09,0,0,1,22.15-10.14c12.77-4.5-25.53-4.5-25.53-4.5l-16.9,1.87Z" style="fill:#263238;stroke:#263238;stroke-linecap:round;stroke-linejoin:round"></path><path d="M292.64,455.39c-2.27,0-8.6-1-10.12-2.28-.42-.35-.82-.72-1.18-1.07l-.34.06.51,4.3a34,34,0,0,1-11,.38c-.16,2.91-.37,5.28-.37,6,0,1.27,6.58,1.77,12.4,1.77s11.14-2.78,12.91-5.82S294.92,455.39,292.64,455.39Z" style="fill:#263238;stroke:#263238;stroke-linecap:round;stroke-linejoin:round"></path><path d="M240.28,268.9s-5.23,15.5-6.64,24.29,0,32.6,0,32.6,13.69,8.79,30.4,8.56S304.51,329,304.51,329s-3.22-36-5.64-45-4.63-15-4.63-15-25.37,1.85-33.22.24-19.53-3.7-19.53-3.7Z" style="fill:#bfbfbf"></path><path d="M299.31,320.58q2.28-.56,4.29-1.14c-.11-1.13-.23-2.31-.36-3.55-1.3.38-2.69.77-4.17,1.13-.28-3.79-.61-7.69-1-11.55,1.26-.56,2.53-1.18,3.8-1.83-.15-1.21-.29-2.41-.44-3.6-1.24.66-2.47,1.28-3.7,1.84-.22-2.29-.45-4.56-.68-6.76,1.19-.31,2.39-.65,3.6-1q-.26-1.82-.51-3.45c-1.17.35-2.32.68-3.46,1-.37-3.38-.73-6.55-1.06-9.41.83-.3,1.66-.63,2.49-1-.33-1.17-.66-2.28-1-3.32-.65.27-1.3.53-1.95.77-.6-5-1.07-8.62-1.22-9.79l-3.86.25-1.65.24c0,.15.5,4.5,1.17,11.08a62.19,62.19,0,0,1-6.53,1.36c-.3-5-.51-8.38-.54-8.9l-3,.25c0,.14.23,3.62.54,9a68.76,68.76,0,0,1-9.35.3c.26-3.76.44-6,.45-6.11l-3-.32c0,.09-.2,2.4-.47,6.25l-1.13-.11c.36-5.56.61-9.23.62-9.38l-3-.27c0,.56-.28,4.1-.62,9.31q-3.48-.48-6.68-1.18c1.55-6.26,2.81-10.08,2.85-10.2l-2.83-1.25c0,.12-1.37,4.15-3,10.74-2.46-.64-4.74-1.33-6.81-2,1.1-4.82,2.15-8.61,2.84-11l-3-.56c-.71,2.43-1.68,6-2.71,10.5l-.73-.29c1-4.45,2-8,2.68-10.35l-3-.55c-.67,2.34-1.56,5.66-2.51,9.73-.78-.34-1.48-.66-2.12-1-.32,1-.66,2.12-1,3.29.72.33,1.5.68,2.38,1.06-.51,2.4-1,5-1.52,7.77-1.14-.58-2.09-1.11-2.89-1.58-.31,1.17-.6,2.33-.86,3.46.9.53,1.93,1.1,3.15,1.72-.5,3.15-.95,6.48-1.33,9.93-1.22-.59-2.3-1.15-3.24-1.67q-.09,1.8-.12,3.78c.91.47,1.91,1,3,1.48-.27,3.08-.47,6.24-.58,9.45-.87-.37-1.66-.73-2.38-1.08,0,1.33.07,2.63.11,3.86.68.32,1.41.63,2.18,1,0,3.31.06,6.66.27,10,.83.44,1.88,1,3.15,1.58-.27-3.5-.39-7-.38-10.44l.66.24c0,3.46.08,7,.31,10.47,1,.43,2,.88,3.14,1.33-.29-3.61-.42-7.23-.42-10.8,1.83.56,3.82,1.1,6,1.6-.11,3.65-.09,7.38.08,11.13,1,.29,2,.56,3.08.81-.2-3.8-.25-7.59-.14-11.3,3,.6,6.37,1.1,10,1.46-.22,4.3-.4,8.16-.51,11.23,1,.06,2,.08,3,.08.1-3,.28-6.81.5-11.06.47,0,.93.07,1.41.09-.13,3.65-.23,7.32-.31,10.94,1,0,2-.06,3-.12.08-3.54.18-7.12.3-10.68q1.32,0,2.67.06h1.55c3.28,0,6.38-.13,9.31-.35.12,3.36.2,6.58.26,9.56l3-.43c-.05-2.94-.14-6.1-.25-9.39,2.87-.29,5.54-.68,8.05-1.12.19,3.23.34,6.33.44,9.19l3-.54c-.1-2.89-.25-6-.44-9.23l.11,0c.21,3.24.37,6.34.47,9.22,1.11-.2,2.12-.39,3-.57C299.69,327,299.53,323.84,299.31,320.58Zm-60.16-5.92-.68-.25c.08-3.18.26-6.31.51-9.36l.71.3C239.43,308.38,239.24,311.49,239.15,314.66Zm.88-12.87-.72-.31c.36-3.44.8-6.75,1.28-9.89l.73.32C240.83,295.05,240.39,298.36,240,301.79Zm1.88-13.47-.73-.33c.49-2.84,1-5.51,1.54-8l.74.28C242.93,282.78,242.41,285.46,241.91,288.32Zm6.31,29.06c-2.2-.53-4.22-1.1-6.06-1.69.07-3.12.24-6.19.48-9.19,1.94.72,4,1.41,6.27,2C248.62,311.41,248.38,314.37,248.22,317.38Zm1.08-12.31c-2.27-.65-4.39-1.37-6.34-2.11.35-3.42.78-6.72,1.26-9.87,2,.76,4.14,1.5,6.51,2.17C250.21,298.36,249.72,301.64,249.3,305.07Zm-4.5-15.57c.49-2.9,1-5.64,1.56-8.16,2.06.7,4.32,1.39,6.75,2-.58,2.52-1.17,5.32-1.74,8.34C249,291,246.77,290.27,244.8,289.5Zm16.46,30.05a99,99,0,0,1-10-1.52c.15-3,.38-5.88.66-8.71a78.8,78.8,0,0,0,9.86,1.75C261.57,314,261.41,316.81,261.26,319.55Zm.68-11.95a77.71,77.71,0,0,1-9.68-1.73c.41-3.44.9-6.73,1.43-9.83a80.72,80.72,0,0,0,8.86,1.62C262.35,300.89,262.14,304.25,261.94,307.6Zm.84-13.56a78.8,78.8,0,0,1-8.45-1.56c.57-3.05,1.17-5.87,1.75-8.4,2.3.51,4.73.95,7.26,1.29C263.16,288,263,291,262.78,294Zm2.86,25.85-1.35-.09c.15-2.72.31-5.57.48-8.46l1.24.07C265.88,314.18,265.75,317,265.64,319.89Zm.54-11.95-1.2-.07c.19-3.33.4-6.67.6-9.89.37,0,.75.07,1.13.09C266.53,301.18,266.35,304.49,266.18,307.94Zm.75-13.47-1.12-.09c.19-3.09.38-6,.55-8.67l1.12.1C267.31,288.33,267.12,291.24,266.93,294.47Zm3.59-8.48q1.44.06,2.91.06c2.25,0,4.55-.11,6.88-.34.15,2.63.31,5.57.48,8.7a86.7,86.7,0,0,1-10.83.24C270.16,291.42,270.35,288.5,270.52,286Zm-.78,12.26c1.11,0,2.23.07,3.37.07,2.52,0,5.15-.12,7.87-.36.15,2.92.3,6,.44,9.05a66.62,66.62,0,0,1-12.21,1C269.39,304.6,269.57,301.32,269.74,298.25Zm1.51,21.85c-.87,0-1.73,0-2.57-.06.11-2.89.23-5.75.36-8.53h.75a69.27,69.27,0,0,0,11.79-1c.14,3.09.27,6.19.38,9.22C278.61,320,275.05,320.14,271.25,320.1Zm12.09-34.76A64.86,64.86,0,0,0,290,284c.28,2.76.57,5.79.87,9-2.42.48-4.77.85-7.07,1.13C283.65,290.94,283.49,288,283.34,285.34Zm.67,12.31c2.33-.29,4.74-.68,7.2-1.18.23,2.54.46,5.15.68,7.79a64.69,64.69,0,0,1-7.45,2.15C284.3,303.42,284.16,300.48,284,297.65Zm1,21.81c-.12-3.14-.25-6.34-.4-9.54a66.39,66.39,0,0,0,7.58-2.12c.28,3.54.54,7.09.77,10.53Q289.25,319,285,319.46Zm11-1.73c-.22-3.42-.48-6.93-.76-10.43.32,3.5.61,7,.86,10.41Z" style="fill:#ababab"></path><path d="M240.28,268.9s-5.23,15.5-6.64,24.29,0,32.6,0,32.6,13.69,8.79,30.4,8.56S304.51,329,304.51,329s-3.22-36-5.64-45-4.63-15-4.63-15-25.37,1.85-33.22.24-19.53-3.7-19.53-3.7Z" style="fill:none;stroke:#263238;stroke-linecap:round;stroke-linejoin:round"></path><path d="M280,158.92s-1,13.83,3.08,24.08,7.58,15.19,7.58,15.19l-18.85.69S267.67,167.63,280,158.92Z" style="fill:#263238;stroke:#263238;stroke-linecap:round;stroke-linejoin:round"></path><path d="M277.93,194.36s7.85.81,10.47,5.44,4,26.17,4,36.84,5.44,33.63,5.44,33.63-26,6.24-37.05,5.64-22.35-5.64-22.35-5.64,4.43-18.32,4-24.37-15.11-35.43-15.11-42.68,14.3-10.87,17.52-11.28,22.15.41,22.15.41Z" style="fill:#fff;stroke:#263238;stroke-linecap:round;stroke-linejoin:round"></path><path d="M267.06,140.6a32.51,32.51,0,0,0,8.46-.8c3.42-1,6.84-.21,7.65,6.84s-4,19.33-4.63,29.2,1.41,16.51,0,23.15-6,14.5-8.86,20.54-3.63,15.7-2.42,22.35-6,10.67-19.13,12.08-17.72-2.62-21.34-16.11a36.54,36.54,0,0,1,5.64-31c4.63-6.44,9.86-16.31,9.86-29s-3-20.13-.6-28.19,15.91-14.29,24.77-9.26" style="fill:#263238;stroke:#263238;stroke-linecap:round;stroke-linejoin:round"></path><path d="M291.42,234.23H267.06s-3.42,28.79-4.43,35.84-4,12.08,2,14.49,18.12,4.23,29.6,1.41,15.1-2.41,16.51-7-1.21-11.28-3.42-15.11a20.65,20.65,0,0,0-5.44-6s-6.84-18.32-7.65-20.53A5.4,5.4,0,0,0,291.42,234.23Z" style="fill:#F9F9F9;stroke:#263238;stroke-linecap:round;stroke-linejoin:round"></path><path d="M285,257.87c-.65,1.26-1.34,2.51-2,3.7" style="fill:none;stroke:#263238;stroke-linecap:round;stroke-linejoin:round"></path><path d="M292.36,240.22s-2,6.09-5.08,12.84" style="fill:none;stroke:#263238;stroke-linecap:round;stroke-linejoin:round"></path><path d="M293.19,244.74s-.41,5.33-1.65,12.72" style="fill:none;stroke:#263238;stroke-linecap:round;stroke-linejoin:round"></path><path d="M279.54,196a21.22,21.22,0,0,1,11.08,2.22c5,2.81,10.06,16.51,12.88,22.95s12.28,26.17,12.08,29.4a8,8,0,0,1-3.42,5.63c-3.22,2.22-10.27,1.61-10.27,1.61s-5-7.24-6.24-12.68-4-9.26-6-12.69S282,219.33,282,219.33" style="fill:#fff;stroke:#263238;stroke-linecap:round;stroke-linejoin:round"></path><path d="M294.84,241.07s4.23,8.66,8.86,11.08" style="fill:#fff;stroke:#263238;stroke-linecap:round;stroke-linejoin:round"></path><path d="M282,195.37a183.86,183.86,0,0,0-5,20.53,116.87,116.87,0,0,0-2,18.93h2.82s-.2-12.28,1.81-22.15A74.71,74.71,0,0,1,285,196Z" style="fill:#F9F9F9;stroke:#263238;stroke-linecap:round;stroke-linejoin:round"></path></g></svg>